<?xml version="1.0" encoding="utf-8"?>
<!-- Generator: Adobe Illustrator 25.3.1, SVG Export Plug-In . SVG Version: 6.00 Build 0)  -->
<svg version="1.1" id="Capa_1" xmlns="http://www.w3.org/2000/svg" xmlns:xlink="http://www.w3.org/1999/xlink" x="0px" y="0px"
	 viewBox="0 0 60.4 60.4" style="enable-background:new 0 0 60.4 60.4;" xml:space="preserve">
<style type="text/css">
	.st0{fill:#FFFFFF;}
</style>
<path class="st0" d="M36.2,53.8c-0.3,3-2.9,5.3-6,5.4c-3.1,0.1-5.9-2.3-6.3-5.4c0-15.2,0-29.1,0-44.3V7.4c0.6-2.8,3.1-4.8,6-4.9
	c3-0.1,5.6,2,6.2,4.9c0,0.7,0,1.4,0,2.1V53.8z"/>
<path class="st0" d="M53.1,24.7c3,0.3,5.3,2.9,5.4,6c0.1,3.1-2.3,5.9-5.4,6.3C37.9,37,24,37,8.8,37H6.7c-2.8-0.6-4.8-3.1-4.9-6
	c-0.1-3,2-5.6,4.9-6.2c0.7,0,1.4,0,2.1,0H53.1z"/>
</svg>
